<mxfile host="app.diagrams.net" modified="2023-05-13T08:03:29.322Z" agent="Mozilla/5.0 (Windows NT 10.0; Win64; x64) AppleWebKit/537.36 (KHTML, like Gecko) Chrome/113.0.0.0 Safari/537.36" version="21.3.0" etag="O32CtJZtTpoTvGaP5QVc" type="github">
  <diagram name="Сторінка-1" id="Esw6Zfm9ke6yhHb0rozr">
    <mxGraphModel>
      <root>
        <mxCell id="0" />
        <mxCell id="1" parent="0" />
      </root>
    </mxGraphModel>
  </diagram>
</mxfile>
